<svg width="172" height="122" viewBox="0 0 172 122" fill="none" xmlns="http://www.w3.org/2000/svg">
<rect x="162.518" y="52.1531" width="9.48239" height="17.121" rx="4.74119" fill="#F5F5F5"/>
<rect x="144.87" y="44.2511" width="21.8622" height="32.925" rx="10.9311" fill="#0F9CE7"/>
<rect x="9.48242" y="69.0764" width="9.48239" height="17.121" rx="4.74119" transform="rotate(180 9.48242 69.0764)" fill="#F5F5F5"/>
<rect x="27.1284" y="77.1761" width="21.8622" height="32.925" rx="10.9311" transform="rotate(180 27.1284 77.1761)" fill="#0F9CE7"/>
<path d="M149.874 60.5819C149.874 94.0404 128.26 121.164 86 121.164C43.7405 121.164 22.1256 94.0404 22.1256 60.5819C22.1256 27.1235 43.7405 0 86 0C128.26 0 149.874 27.1235 149.874 60.5819Z" fill="#F5F5F5"/>
<path d="M128.539 63.4078C128.539 88.3571 117.766 102.199 86.3763 102.199C54.9863 102.199 43.7244 88.3571 43.7244 63.4078C43.7244 38.4585 54.9863 22.6524 86.3763 22.6524C117.766 22.6524 128.539 38.4585 128.539 63.4078Z" fill="#FFD700" fill-opacity="0.73"/>
<ellipse cx="107.73" cy="39.3783" rx="11.5896" ry="4.87289" fill="#FFFEE1"/>
</svg>
